<svg width="24.000000" height="24.000000" viewBox="0 0 24 24" fill="none" xmlns="http://www.w3.org/2000/svg" xmlns:xlink="http://www.w3.org/1999/xlink">
	<desc>
			Created with Pixso.
	</desc>
	<defs>
		<clipPath id="clip256_181">
			<rect id="basic / heart_outline" rx="0.000000" width="23.000000" height="23.000000" transform="translate(0.500000 0.500000)" fill="white" fill-opacity="0"/>
		</clipPath>
	</defs>
	<g clip-path="url(#clip256_181)">
		<path id="coolicon" d="M12 21C11.35 20.42 10.62 19.83 9.85 19.2L9.84 19.2C7.12 16.98 4.05 14.46 2.69 11.45C2.24 10.49 2.01 9.45 2 8.4C1.99 6.94 2.57 5.55 3.61 4.54C4.64 3.52 6.04 2.97 7.5 3C8.68 3 9.83 3.34 10.82 3.98C11.26 4.26 11.65 4.6 12 5C12.34 4.6 12.73 4.26 13.17 3.98C14.16 3.34 15.31 3 16.5 3C17.95 2.97 19.35 3.52 20.38 4.54C21.42 5.55 22 6.94 22 8.4C21.98 9.45 21.75 10.5 21.3 11.46C19.94 14.47 16.87 16.98 14.15 19.2L14.14 19.2C13.37 19.83 12.64 20.43 12 21L12 21ZM7.5 5C6.56 4.98 5.66 5.34 5 5.99C4.35 6.62 3.99 7.49 4 8.4C4.01 9.17 4.18 9.92 4.51 10.62C5.15 11.92 6.01 13.1 7.06 14.1C8.06 15.1 9.2 16.06 10.18 16.88C10.45 17.1 10.73 17.33 11.01 17.56L11.18 17.7C11.45 17.92 11.73 18.14 12 18.37L12.01 18.35L12.01 18.35L12.02 18.35L12.03 18.34L12.03 18.34L12.04 18.34L12.06 18.33L12.1 18.29L12.1 18.29L12.12 18.28L12.12 18.28L12.13 18.27L12.79 17.73L12.97 17.58C13.25 17.35 13.53 17.13 13.8 16.9C14.79 16.09 15.93 15.12 16.92 14.12C17.97 13.12 18.83 11.94 19.48 10.65C19.81 9.94 19.99 9.17 20 8.4C20 7.49 19.64 6.63 19 6C18.33 5.34 17.43 4.99 16.5 5C15.36 4.99 14.27 5.46 13.51 6.31L12 8.05L10.49 6.31C9.72 5.46 8.63 4.99 7.5 5Z" fill="#C4C4C4" fill-opacity="1.000000" fill-rule="nonzero"/>
	</g>
</svg>
