<svg width="192.239288" height="32.185547" viewBox="0 0 192.239 32.1855" fill="none" xmlns="http://www.w3.org/2000/svg" xmlns:xlink="http://www.w3.org/1999/xlink">
	<desc>
			Created with Pixso.
	</desc>
	<defs/>
	<path id="Интерьер." d="M4.6 0L0 0L0 25.19L4.35 25.19L17.88 7.33L17.88 25.19L22.49 25.19L22.49 0L18.14 0L4.6 17.89L4.6 0ZM89.38 17.02Q89.45 16.16 89.45 15.69Q89.45 12.74 88.2 10.49Q87.53 9.27 86.58 8.35Q85.77 7.57 84.75 7Q84.5 6.86 84.24 6.73Q82.22 5.75 79.73 5.75Q77.37 5.75 75.39 6.63Q75 6.81 74.61 7.02Q73.46 7.66 72.56 8.55Q71.7 9.42 71.07 10.52Q70.82 10.97 70.62 11.43Q69.8 13.32 69.8 15.58Q69.8 17.92 70.68 19.85Q70.87 20.27 71.11 20.68Q71.58 21.49 72.2 22.17Q73.29 23.38 74.83 24.19Q77.25 25.45 80.41 25.45Q82.9 25.45 84.88 24.66Q86.32 24.07 87.4 23.09Q87.81 22.73 88.16 22.31L85.74 19.54Q85 20.3 84.11 20.78Q82.54 21.62 80.52 21.62Q78.26 21.62 76.67 20.6Q76.51 20.5 76.36 20.39Q75.65 19.86 75.17 19.17Q74.52 18.24 74.3 17.02L89.38 17.02ZM109.61 6.74Q107.56 5.75 105.03 5.75Q103.06 5.75 101.41 6.44Q100.55 6.8 99.83 7.35Q99.19 7.84 98.66 8.49L98.66 5.97L94.38 5.97L94.38 32.18L98.88 32.18L98.88 22.86Q99.62 23.7 100.54 24.27Q102.42 25.45 105.03 25.45Q107.59 25.45 109.65 24.44Q109.86 24.34 110.06 24.23Q111.04 23.68 111.84 22.94Q112.83 22 113.53 20.75Q113.58 20.66 113.63 20.57Q114.79 18.39 114.79 15.58Q114.79 12.77 113.62 10.59Q113.58 10.51 113.53 10.44Q112.85 9.23 111.89 8.31Q111.08 7.54 110.06 6.98Q109.84 6.86 109.61 6.74ZM158.39 17.02Q158.46 16.16 158.46 15.69Q158.46 12.74 157.21 10.49Q156.55 9.27 155.59 8.35Q154.78 7.57 153.76 7Q153.51 6.86 153.25 6.73Q151.23 5.75 148.74 5.75Q146.38 5.75 144.41 6.63Q144.01 6.81 143.63 7.02Q142.47 7.66 141.58 8.55Q140.71 9.42 140.08 10.52Q139.83 10.97 139.63 11.43Q138.81 13.32 138.81 15.58Q138.81 17.92 139.69 19.85Q139.89 20.27 140.12 20.68Q140.6 21.49 141.21 22.17Q142.31 23.38 143.85 24.19Q146.26 25.45 149.43 25.45Q151.91 25.45 153.89 24.66Q155.33 24.07 156.42 23.09Q156.82 22.73 157.17 22.31L154.75 19.54Q154.01 20.3 153.12 20.78Q151.55 21.62 149.53 21.62Q147.27 21.62 145.68 20.6Q145.52 20.5 145.38 20.39Q144.66 19.86 144.18 19.17Q143.54 18.24 143.31 17.02L158.39 17.02ZM178.62 6.74Q176.57 5.75 174.05 5.75Q172.07 5.75 170.43 6.44Q169.56 6.8 168.84 7.35Q168.2 7.84 167.67 8.49L167.67 5.97L163.39 5.97L163.39 32.18L167.89 32.18L167.89 22.86Q168.64 23.7 169.55 24.27Q171.43 25.45 174.05 25.45Q176.6 25.45 178.67 24.44Q178.87 24.34 179.07 24.23Q180.06 23.68 180.85 22.94Q181.85 22 182.55 20.75Q182.59 20.66 182.64 20.57Q183.8 18.39 183.8 15.58Q183.8 12.77 182.63 10.59Q182.59 10.51 182.55 10.44Q181.86 9.23 180.9 8.31Q180.09 7.54 179.07 6.98Q178.85 6.86 178.62 6.74ZM33.54 5.97L29.04 5.97L29.04 25.19L33.54 25.19L33.54 17.6L43.23 17.6L43.23 25.19L47.73 25.19L47.73 5.97L43.23 5.97L43.23 13.79L33.54 13.79L33.54 5.97ZM62.27 9.79L69.01 9.79L69.01 5.97L51.01 5.97L51.01 9.79L57.77 9.79L57.77 25.19L62.27 25.19L62.27 9.79ZM134.54 13.96Q132.58 12.31 128.91 12.31L123.76 12.27L123.76 5.97L119.26 5.97L119.26 25.19L128.26 25.23Q132.19 25.26 134.34 23.54Q135.05 22.98 135.52 22.26Q136.5 20.78 136.5 18.65Q136.5 16.44 135.46 14.96Q135.08 14.41 134.54 13.96ZM77.06 9.97Q78.24 9.36 79.73 9.36Q81.3 9.36 82.51 10.02Q82.98 10.29 83.4 10.66Q83.93 11.12 84.31 11.69Q84.98 12.7 85.17 14.03L74.26 14.03Q74.48 12.6 75.22 11.56Q75.59 11.05 76.07 10.64Q76.54 10.24 77.06 9.97ZM146.08 9.97Q147.25 9.36 148.74 9.36Q150.32 9.36 151.52 10.02Q152 10.29 152.42 10.66Q152.95 11.12 153.32 11.69Q154 12.7 154.18 14.03L143.28 14.03Q143.49 12.6 144.24 11.56Q144.6 11.05 145.09 10.64Q145.55 10.24 146.08 9.97ZM107.31 20.94Q106.09 21.59 104.53 21.59Q103.25 21.59 102.17 21.13Q101.89 21 101.62 20.85Q101.17 20.6 100.79 20.27Q100.06 19.65 99.57 18.75Q98.81 17.38 98.81 15.58Q98.81 13.79 99.57 12.41Q100.08 11.49 100.83 10.86Q101.19 10.55 101.62 10.3Q101.89 10.15 102.17 10.03Q103.25 9.57 104.53 9.57Q106.08 9.57 107.29 10.21Q108.02 10.6 108.62 11.23Q108.98 11.6 109.27 12.03Q110.22 13.49 110.22 15.58Q110.22 17.68 109.25 19.15Q108.98 19.57 108.62 19.94Q108.03 20.55 107.31 20.94ZM176.32 20.94Q175.11 21.59 173.55 21.59Q172.26 21.59 171.18 21.13Q170.9 21 170.63 20.85Q170.19 20.6 169.81 20.27Q169.08 19.65 168.58 18.75Q167.82 17.38 167.82 15.58Q167.82 13.79 168.58 12.41Q169.09 11.49 169.84 10.86Q170.2 10.55 170.63 10.3Q170.9 10.15 171.18 10.03Q172.26 9.57 173.55 9.57Q175.09 9.57 176.3 10.21Q177.03 10.6 177.63 11.23Q178 11.6 178.28 12.03Q179.23 13.49 179.23 15.58Q179.23 17.68 178.26 19.15Q177.99 19.57 177.63 19.94Q177.04 20.55 176.32 20.94ZM130.89 21.09Q129.84 21.95 127.86 21.91L123.76 21.88L123.76 15.37L127.86 15.4Q129.91 15.44 130.92 16.19Q131.13 16.35 131.3 16.55Q131.93 17.29 131.93 18.57Q131.93 19.84 131.32 20.64Q131.13 20.89 130.89 21.09ZM188.07 25.21Q188.62 25.45 189.28 25.45Q189.92 25.45 190.46 25.22Q190.95 25.01 191.36 24.6Q191.71 24.26 191.92 23.85Q192.23 23.23 192.23 22.46Q192.23 21.54 191.83 20.86Q191.65 20.55 191.38 20.3Q191.05 19.97 190.66 19.78Q190.05 19.47 189.28 19.47Q188.5 19.47 187.87 19.79Q187.49 19.98 187.17 20.3Q186.92 20.54 186.74 20.84Q186.33 21.52 186.33 22.46Q186.33 23.24 186.65 23.87Q186.85 24.27 187.19 24.6Q187.59 25 188.07 25.21Z" fill="#000000" fill-opacity="1.000000" fill-rule="evenodd"/>
</svg>
